ffmpeg version 6.1.1-3ubuntu5 Copyright (c) 2000-2023 the FFmpeg developers
  built with gcc 13 (Ubuntu 13.2.0-23ubuntu3)
  configuration: --prefix=/usr --extra-version=3ubuntu5 --toolchain=hardened --libdir=/usr/lib/x86_64-linux-gnu --incdir=/usr/include/x86_64-linux-gnu --arch=amd64 --enable-gpl --disable-stripping --disable-omx --enable-gnutls --enable-libaom --enable-libass --enable-libbs2b --enable-libcaca --enable-libcdio --enable-libcodec2 --enable-libdav1d --enable-libflite --enable-libfontconfig --enable-libfreetype --enable-libfribidi --enable-libglslang --enable-libgme --enable-libgsm --enable-libharfbuzz --enable-libmp3lame --enable-libmysofa --enable-libopenjpeg --enable-libopenmpt --enable-libopus --enable-librubberband --enable-libshine --enable-libsnappy --enable-libsoxr --enable-libspeex --enable-libtheora --enable-libtwolame --enable-libvidstab --enable-libvorbis --enable-libvpx --enable-libwebp --enable-libx265 --enable-libxml2 --enable-libxvid --enable-libzimg --enable-openal --enable-opencl --enable-opengl --disable-sndio --enable-libvpl --disable-libmfx --enable-libdc1394 --enable-libdrm --enable-libiec61883 --enable-chromaprint --enable-frei0r --enable-ladspa --enable-libbluray --enable-libjack --enable-libpulse --enable-librabbitmq --enable-librist --enable-libsrt --enable-libssh --enable-libsvtav1 --enable-libx264 --enable-libzmq --enable-libzvbi --enable-lv2 --enable-sdl2 --enable-libplacebo --enable-librav1e --enable-pocketsphinx --enable-librsvg --enable-libjxl --enable-shared
  libavutil      58. 29.100 / 58. 29.100
  libavcodec     60. 31.102 / 60. 31.102
  libavformat    60. 16.100 / 60. 16.100
  libavdevice    60.  3.100 / 60.  3.100
  libavfilter     9. 12.100 /  9. 12.100
  libswscale      7.  5.100 /  7.  5.100
  libswresample   4. 12.100 /  4. 12.100
  libpostproc    57.  3.100 / 57.  3.100
[x11grab @ 0x55ac07f015c0] Stream #0: not enough frames to estimate rate; consider increasing probesize
Input #0, x11grab, from ':1':
  Duration: N/A, start: 1781278479.884598, bitrate: 442368 kb/s
  Stream #0:0: Video: rawvideo (BGR[0] / 0x524742), bgr0, 1280x720, 442368 kb/s, 15 fps, 1000k tbr, 1000k tbn
Stream mapping:
  Stream #0:0 -> #0:0 (rawvideo (native) -> h264 (libx264))
Press [q] to stop, [?] for help
[libx264 @ 0x55ac07f0a300] using cpu capabilities: MMX2 SSE2Fast SSSE3 SSE4.2 AVX FMA3 BMI2 AVX2 AVX512
[libx264 @ 0x55ac07f0a300] profile High, level 3.1, 4:2:0, 8-bit
[libx264 @ 0x55ac07f0a300] 264 - core 164 r3108 31e19f9 - H.264/MPEG-4 AVC codec - Copyleft 2003-2023 - http://www.videolan.org/x264.html - options: cabac=1 ref=3 deblock=1:0:0 analyse=0x3:0x113 me=hex subme=7 psy=1 psy_rd=1.00:0.00 mixed_ref=1 me_range=16 chroma_me=1 trellis=1 8x8dct=1 cqm=0 deadzone=21,11 fast_pskip=1 chroma_qp_offset=-2 threads=6 lookahead_threads=1 sliced_threads=0 nr=0 decimate=1 interlaced=0 bluray_compat=0 constrained_intra=0 bframes=3 b_pyramid=2 b_adapt=1 b_bias=0 direct=1 weightb=1 open_gop=0 weightp=2 keyint=250 keyint_min=15 scenecut=40 intra_refresh=0 rc_lookahead=40 rc=crf mbtree=1 crf=32.0 qcomp=0.60 qpmin=0 qpmax=69 qpstep=4 ip_ratio=1.40 aq=1:1.00
Output #0, mp4, to '../../evidence/participant.mp4':
  Metadata:
    encoder         : Lavf60.16.100
  Stream #0:0: Video: h264 (avc1 / 0x31637661), yuv420p(tv, progressive), 1280x720, q=2-31, 15 fps, 15360 tbn
    Metadata:
      encoder         : Lavc60.31.102 libx264
    Side data:
      cpb: bitrate max/min/avg: 0/0/0 buffer size: 0 vbv_delay: N/A
frame=    0 fps=0.0 q=0.0 size=       0kB time=N/A bitrate=N/A speed=N/A    frame=    0 fps=0.0 q=0.0 size=       0kB time=N/A bitrate=N/A speed=N/A    frame=    0 fps=0.0 q=0.0 size=       0kB time=N/A bitrate=N/A speed=N/A    frame=    0 fps=0.0 q=0.0 size=       0kB time=N/A bitrate=N/A speed=N/A    frame=    0 fps=0.0 q=0.0 size=       0kB time=N/A bitrate=N/A speed=N/A    frame=    0 fps=0.0 q=0.0 size=       0kB time=N/A bitrate=N/A speed=N/A    frame=    0 fps=0.0 q=0.0 size=       0kB time=N/A bitrate=N/A speed=N/A    frame=    8 fps=2.1 q=36.0 size=       0kB time=00:00:00.33 bitrate=   1.2kbits/s speed=0.0893x    frame=   15 fps=3.5 q=36.0 size=       0kB time=00:00:00.86 bitrate=   0.4kbits/s speed=0.203x    frame=   23 fps=4.8 q=36.0 size=       0kB time=00:00:01.40 bitrate=   0.3kbits/s speed=0.292x    frame=   31 fps=5.8 q=36.0 size=       0kB time=00:00:01.93 bitrate=   0.2kbits/s speed=0.362x    frame=   40 fps=6.8 q=36.0 size=       0kB time=00:00:02.46 bitrate=   0.2kbits/s speed=0.42x    frame=   47 fps=7.3 q=36.0 size=       0kB time=00:00:03.00 bitrate=   0.1kbits/s speed=0.469x    frame=   55 fps=7.9 q=36.0 size=       0kB time=00:00:03.53 bitrate=   0.1kbits/s speed=0.51x    frame=   63 fps=8.4 q=36.0 size=       0kB time=00:00:04.06 bitrate=   0.1kbits/s speed=0.545x    frame=   71 fps=8.9 q=36.0 size=       0kB time=00:00:04.60 bitrate=   0.1kbits/s speed=0.575x    frame=   79 fps=9.3 q=36.0 size=     256kB time=00:00:05.13 bitrate= 408.6kbits/s speed=0.602x    frame=   87 fps=9.6 q=36.0 size=     256kB time=00:00:05.66 bitrate= 370.2kbits/s speed=0.625x    frame=   95 fps=9.9 q=36.0 size=     256kB time=00:00:06.20 bitrate= 338.3kbits/s speed=0.646x    frame=  103 fps= 10 q=36.0 size=     256kB time=00:00:06.73 bitrate= 311.5kbits/s speed=0.664x    frame=  111 fps= 10 q=36.0 size=     256kB time=00:00:07.26 bitrate= 288.7kbits/s speed=0.681x    frame=  119 fps= 11 q=36.0 size=     256kB time=00:00:07.80 bitrate= 268.9kbits/s speed=0.697x    frame=  127 fps= 11 q=36.0 size=     256kB time=00:00:08.33 bitrate= 251.7kbits/s speed=0.71x    frame=  135 fps= 11 q=36.0 size=     256kB time=00:00:08.86 bitrate= 236.6kbits/s speed=0.723x    frame=  143 fps= 11 q=36.0 size=     256kB time=00:00:09.40 bitrate= 223.1kbits/s speed=0.734x    frame=  151 fps= 11 q=36.0 size=     256kB time=00:00:09.93 bitrate= 211.2kbits/s speed=0.745x    frame=  159 fps= 11 q=36.0 size=     256kB time=00:00:10.46 bitrate= 200.4kbits/s speed=0.755x    frame=  167 fps= 12 q=36.0 size=     256kB time=00:00:11.00 bitrate= 190.7kbits/s speed=0.764x    frame=  175 fps= 12 q=36.0 size=     256kB time=00:00:11.53 bitrate= 181.9kbits/s speed=0.772x    frame=  183 fps= 12 q=36.0 size=     256kB time=00:00:12.06 bitrate= 173.8kbits/s speed=0.78x    frame=  191 fps= 12 q=36.0 size=     256kB time=00:00:12.60 bitrate= 166.5kbits/s speed=0.788x    frame=  199 fps= 12 q=36.0 size=     256kB time=00:00:13.13 bitrate= 159.7kbits/s speed=0.794x    frame=  207 fps= 12 q=36.0 size=     256kB time=00:00:13.66 bitrate= 153.5kbits/s speed=0.801x    frame=  215 fps= 12 q=36.0 size=     256kB time=00:00:14.20 bitrate= 147.7kbits/s speed=0.807x    frame=  223 fps= 12 q=36.0 size=     256kB time=00:00:14.73 bitrate= 142.4kbits/s speed=0.813x    frame=  231 fps= 12 q=36.0 size=     256kB time=00:00:15.26 bitrate= 137.4kbits/s speed=0.818x    frame=  239 fps= 12 q=36.0 size=     256kB time=00:00:15.80 bitrate= 132.8kbits/s speed=0.823x    frame=  247 fps= 13 q=36.0 size=     256kB time=00:00:16.33 bitrate= 128.4kbits/s speed=0.828x    frame=  255 fps= 13 q=36.0 size=     256kB time=00:00:16.86 bitrate= 124.4kbits/s speed=0.832x    frame=  263 fps= 13 q=36.0 size=     256kB time=00:00:17.40 bitrate= 120.5kbits/s speed=0.837x    frame=  272 fps= 13 q=36.0 size=     256kB time=00:00:17.93 bitrate= 117.0kbits/s speed=0.841x    frame=  279 fps= 13 q=36.0 size=     256kB time=00:00:18.46 bitrate= 113.6kbits/s speed=0.844x    frame=  287 fps= 13 q=36.0 size=     256kB time=00:00:19.00 bitrate= 110.4kbits/s speed=0.848x    frame=  295 fps= 13 q=36.0 size=     256kB time=00:00:19.53 bitrate= 107.4kbits/s speed=0.852x    frame=  303 fps= 13 q=36.0 size=     256kB time=00:00:20.06 bitrate= 104.5kbits/s speed=0.855x    frame=  311 fps= 13 q=36.0 size=     256kB time=00:00:20.60 bitrate= 101.8kbits/s speed=0.858x    frame=  319 fps= 13 q=36.0 size=     256kB time=00:00:21.13 bitrate=  99.3kbits/s speed=0.861x    frame=  327 fps= 13 q=36.0 size=     256kB time=00:00:21.66 bitrate=  96.8kbits/s speed=0.864x    frame=  335 fps= 13 q=36.0 size=     256kB time=00:00:22.20 bitrate=  94.5kbits/s speed=0.867x    frame=  344 fps= 13 q=36.0 size=     256kB time=00:00:22.73 bitrate=  92.3kbits/s speed=0.87x    frame=  351 fps= 13 q=36.0 size=     256kB time=00:00:23.26 bitrate=  90.2kbits/s speed=0.872x    frame=  360 fps= 13 q=36.0 size=     256kB time=00:00:23.80 bitrate=  88.1kbits/s speed=0.875x    frame=  367 fps= 13 q=36.0 size=     256kB time=00:00:24.33 bitrate=  86.2kbits/s speed=0.877x    frame=  375 fps= 13 q=36.0 size=     256kB time=00:00:24.86 bitrate=  84.4kbits/s speed=0.88x    frame=  384 fps= 13 q=36.0 size=     256kB time=00:00:25.40 bitrate=  82.6kbits/s speed=0.882x    frame=  391 fps= 13 q=36.0 size=     256kB time=00:00:25.93 bitrate=  80.9kbits/s speed=0.884x    frame=  399 fps= 13 q=36.0 size=     256kB time=00:00:26.46 bitrate=  79.3kbits/s speed=0.886x    frame=  407 fps= 13 q=36.0 size=     256kB time=00:00:27.00 bitrate=  77.7kbits/s speed=0.888x    frame=  415 fps= 13 q=36.0 size=     256kB time=00:00:27.53 bitrate=  76.2kbits/s speed=0.89x    frame=  423 fps= 13 q=36.0 size=     256kB time=00:00:28.06 bitrate=  74.7kbits/s speed=0.892x    frame=  431 fps= 13 q=36.0 size=     256kB time=00:00:28.60 bitrate=  73.3kbits/s speed=0.894x    frame=  439 fps= 13 q=36.0 size=     256kB time=00:00:29.13 bitrate=  72.0kbits/s speed=0.896x    frame=  447 fps= 14 q=36.0 size=     256kB time=00:00:29.66 bitrate=  70.7kbits/s speed=0.897x    frame=  455 fps= 14 q=36.0 size=     256kB time=00:00:30.20 bitrate=  69.5kbits/s speed=0.899x    frame=  463 fps= 14 q=36.0 size=     256kB time=00:00:30.73 bitrate=  68.2kbits/s speed= 0.9x    frame=  471 fps= 14 q=36.0 size=     256kB time=00:00:31.26 bitrate=  67.1kbits/s speed=0.902x    frame=  479 fps= 14 q=36.0 size=     256kB time=00:00:31.80 bitrate=  66.0kbits/s speed=0.903x    frame=  487 fps= 14 q=36.0 size=     256kB time=00:00:32.33 bitrate=  64.9kbits/s speed=0.905x    frame=  495 fps= 14 q=36.0 size=     256kB time=00:00:32.86 bitrate=  63.8kbits/s speed=0.906x    frame=  503 fps= 14 q=36.0 size=     256kB time=00:00:33.40 bitrate=  62.8kbits/s speed=0.908x    frame=  511 fps= 14 q=36.0 size=     256kB time=00:00:33.93 bitrate=  61.8kbits/s speed=0.909x    frame=  519 fps= 14 q=36.0 size=     256kB time=00:00:34.46 bitrate=  60.9kbits/s speed=0.91x    frame=  527 fps= 14 q=36.0 size=     256kB time=00:00:35.00 bitrate=  59.9kbits/s speed=0.911x    frame=  535 fps= 14 q=36.0 size=     256kB time=00:00:35.53 bitrate=  59.0kbits/s speed=0.913x    frame=  543 fps= 14 q=36.0 size=     256kB time=00:00:36.06 bitrate=  58.2kbits/s speed=0.914x    frame=  551 fps= 14 q=36.0 size=     256kB time=00:00:36.60 bitrate=  57.3kbits/s speed=0.915x    frame=  559 fps= 14 q=36.0 size=     256kB time=00:00:37.13 bitrate=  56.5kbits/s speed=0.916x    frame=  567 fps= 14 q=36.0 size=     256kB time=00:00:37.66 bitrate=  55.7kbits/s speed=0.917x    frame=  575 fps= 14 q=36.0 size=     256kB time=00:00:38.20 bitrate=  54.9kbits/s speed=0.918x    frame=  583 fps= 14 q=36.0 size=     256kB time=00:00:38.73 bitrate=  54.2kbits/s speed=0.919x    frame=  591 fps= 14 q=36.0 size=     256kB time=00:00:39.26 bitrate=  53.4kbits/s speed=0.92x    frame=  599 fps= 14 q=36.0 size=     256kB time=00:00:39.80 bitrate=  52.7kbits/s speed=0.921x    frame=  607 fps= 14 q=36.0 size=     256kB time=00:00:40.33 bitrate=  52.0kbits/s speed=0.922x    frame=  615 fps= 14 q=36.0 size=     256kB time=00:00:40.86 bitrate=  51.3kbits/s speed=0.923x    frame=  623 fps= 14 q=36.0 size=     256kB time=00:00:41.40 bitrate=  50.7kbits/s speed=0.924x    frame=  631 fps= 14 q=36.0 size=     256kB time=00:00:41.93 bitrate=  50.0kbits/s speed=0.925x    frame=  639 fps= 14 q=36.0 size=     256kB time=00:00:42.46 bitrate=  49.4kbits/s speed=0.926x    frame=  647 fps= 14 q=36.0 size=     256kB time=00:00:43.00 bitrate=  48.8kbits/s speed=0.927x    frame=  655 fps= 14 q=36.0 size=     256kB time=00:00:43.53 bitrate=  48.2kbits/s speed=0.927x    frame=  663 fps= 14 q=36.0 size=     256kB time=00:00:44.06 bitrate=  47.6kbits/s speed=0.928x    frame=  671 fps= 14 q=36.0 size=     256kB time=00:00:44.60 bitrate=  47.0kbits/s speed=0.929x    frame=  679 fps= 14 q=36.0 size=     256kB time=00:00:45.13 bitrate=  46.5kbits/s speed=0.93x    frame=  687 fps= 14 q=36.0 size=     256kB time=00:00:45.66 bitrate=  45.9kbits/s speed=0.931x    frame=  695 fps= 14 q=36.0 size=     256kB time=00:00:46.20 bitrate=  45.4kbits/s speed=0.931x    frame=  703 fps= 14 q=36.0 size=     256kB time=00:00:46.73 bitrate=  44.9kbits/s speed=0.932x    frame=  711 fps= 14 q=36.0 size=     256kB time=00:00:47.26 bitrate=  44.4kbits/s speed=0.933x    frame=  719 fps= 14 q=36.0 size=     256kB time=00:00:47.80 bitrate=  43.9kbits/s speed=0.934x    frame=  727 fps= 14 q=36.0 size=     256kB time=00:00:48.33 bitrate=  43.4kbits/s speed=0.934x    frame=  735 fps= 14 q=36.0 size=     256kB time=00:00:48.86 bitrate=  42.9kbits/s speed=0.935x    frame=  743 fps= 14 q=36.0 size=     256kB time=00:00:49.40 bitrate=  42.5kbits/s speed=0.936x    frame=  751 fps= 14 q=36.0 size=     256kB time=00:00:49.93 bitrate=  42.0kbits/s speed=0.936x    frame=  759 fps= 14 q=36.0 size=     256kB time=00:00:50.46 bitrate=  41.6kbits/s speed=0.937x    frame=  767 fps= 14 q=36.0 size=     256kB time=00:00:51.00 bitrate=  41.1kbits/s speed=0.938x    frame=  775 fps= 14 q=36.0 size=     256kB time=00:00:51.53 bitrate=  40.7kbits/s speed=0.938x    frame=  783 fps= 14 q=36.0 size=     256kB time=00:00:52.06 bitrate=  40.3kbits/s speed=0.939x    frame=  791 fps= 14 q=36.0 size=     256kB time=00:00:52.60 bitrate=  39.9kbits/s speed=0.939x    frame=  799 fps= 14 q=36.0 size=     256kB time=00:00:53.13 bitrate=  39.5kbits/s speed=0.94x    frame=  808 fps= 14 q=36.0 size=     256kB time=00:00:53.66 bitrate=  39.1kbits/s speed=0.94x    frame=  815 fps= 14 q=36.0 size=     512kB time=00:00:54.20 bitrate=  77.4kbits/s speed=0.941x    frame=  823 fps= 14 q=36.0 size=     512kB time=00:00:54.73 bitrate=  76.6kbits/s speed=0.942x    frame=  831 fps= 14 q=36.0 size=     512kB time=00:00:55.26 bitrate=  75.9kbits/s speed=0.942x    frame=  839 fps= 14 q=36.0 size=     512kB time=00:00:55.80 bitrate=  75.2kbits/s speed=0.943x    frame=  847 fps= 14 q=36.0 size=     512kB time=00:00:56.33 bitrate=  74.5kbits/s speed=0.943x    frame=  855 fps= 14 q=36.0 size=     512kB time=00:00:56.86 bitrate=  73.8kbits/s speed=0.944x    frame=  863 fps= 14 q=36.0 size=     512kB time=00:00:57.40 bitrate=  73.1kbits/s speed=0.944x    frame=  871 fps= 14 q=36.0 size=     512kB time=00:00:57.93 bitrate=  72.4kbits/s speed=0.945x    frame=  879 fps= 14 q=36.0 size=     512kB time=00:00:58.46 bitrate=  71.7kbits/s speed=0.945x    frame=  887 fps= 14 q=36.0 size=     512kB time=00:00:59.00 bitrate=  71.1kbits/s speed=0.946x    frame=  895 fps= 14 q=36.0 size=     512kB time=00:00:59.53 bitrate=  70.5kbits/s speed=0.946x    [mp4 @ 0x55ac07f097c0] Starting second pass: moving the moov atom to the beginning of the file
[out#0/mp4 @ 0x55ac07f08b40] video:797kB audio:0kB subtitle:0kB other streams:0kB global headers:0kB muxing overhead: 1.472248%
frame=  952 fps= 15 q=-1.0 Lsize=     809kB time=00:01:03.26 bitrate= 104.7kbits/s speed=0.996x    
[libx264 @ 0x55ac07f0a300] frame I:7     Avg QP:24.26  size: 83143
[libx264 @ 0x55ac07f0a300] frame P:287   Avg QP:29.74  size:   647
[libx264 @ 0x55ac07f0a300] frame B:658   Avg QP:39.33  size:    72
[libx264 @ 0x55ac07f0a300] consecutive B-frames:  6.3%  3.6%  3.2% 87.0%
[libx264 @ 0x55ac07f0a300] mb I  I16..4: 22.4% 62.9% 14.8%
[libx264 @ 0x55ac07f0a300] mb P  I16..4:  1.3%  1.1%  0.3%  P16..4:  0.5%  0.1%  0.0%  0.0%  0.0%    skip:96.7%
[libx264 @ 0x55ac07f0a300] mb B  I16..4:  0.0%  0.1%  0.0%  B16..8:  0.9%  0.0%  0.0%  direct: 0.0%  skip:98.9%  L0:52.7% L1:47.2% BI: 0.1%
[libx264 @ 0x55ac07f0a300] 8x8 transform intra:53.2% inter:41.8%
[libx264 @ 0x55ac07f0a300] coded y,uvDC,uvAC intra: 20.0% 16.4% 9.8% inter: 0.0% 0.0% 0.0%
[libx264 @ 0x55ac07f0a300] i16 v,h,dc,p: 32% 68%  0%  0%
[libx264 @ 0x55ac07f0a300] i8 v,h,dc,ddl,ddr,vr,hd,vl,hu: 38%  4% 51%  1%  1%  1%  1%  1%  1%
[libx264 @ 0x55ac07f0a300] i4 v,h,dc,ddl,ddr,vr,hd,vl,hu: 26% 20% 24%  5%  4%  5%  5%  5%  5%
[libx264 @ 0x55ac07f0a300] i8c dc,h,v,p: 66% 26%  8%  0%
[libx264 @ 0x55ac07f0a300] Weighted P-Frames: Y:0.0% UV:0.0%
[libx264 @ 0x55ac07f0a300] ref P L0: 54.4%  7.4% 30.9%  7.4%
[libx264 @ 0x55ac07f0a300] ref B L0: 54.8% 41.0%  4.2%
[libx264 @ 0x55ac07f0a300] ref B L1: 90.3%  9.7%
[libx264 @ 0x55ac07f0a300] kb/s:102.76
Exiting normally, received signal 2.
